<svg xmlns="http://www.w3.org/2000/svg" viewBox="0 0 50 50">
    <path d="M 25 0 C 12.859375 0 3 9.859375 3 22 C 3 27.320313 4.886719 32.195313 8.03125 36 L 3.3125 36 C 2.953125 35.996094 2.617188 36.183594 2.433594 36.496094 C 2.253906 36.808594 2.253906 37.191406 2.433594 37.503906 C 2.617188 37.816406 2.953125 38.003906 3.3125 38 L 12 38 L 12 29.3125 C 12.003906 29.023438 11.878906 28.75 11.664063 28.558594 C 11.449219 28.367188 11.160156 28.277344 10.875 28.3125 C 10.371094 28.375 9.996094 28.804688 10 29.3125 L 10 35.1875 C 6.898438 31.664063 5 27.070313 5 22 C 5 10.941406 13.941406 2 25 2 C 36.058594 2 45 10.941406 45 22 C 45 27.285156 42.96875 32.082031 39.625 35.65625 C 39.332031 35.902344 39.207031 36.296875 39.300781 36.664063 C 39.394531 37.035156 39.695313 37.320313 40.066406 37.398438 C 40.441406 37.476563 40.828125 37.332031 41.0625 37.03125 C 44.738281 33.101563 47 27.800781 47 22 C 47 9.859375 37.140625 0 25 0 Z M 24.875 7.40625 C 20.203125 7.492188 17.21875 9.378906 15.9375 12.3125 C 14.714844 15.105469 14.988281 18.632813 15.875 22.28125 C 15.398438 22.839844 15.019531 23.589844 15.15625 24.71875 C 15.304688 25.949219 15.644531 26.824219 16.125 27.4375 C 16.390625 27.773438 16.738281 27.804688 17.0625 27.96875 C 17.238281 29.015625 17.53125 30.0625 17.96875 30.9375 C 18.21875 31.441406 18.503906 31.90625 18.78125 32.28125 C 18.90625 32.449219 19.085938 32.546875 19.21875 32.6875 C 19.226563 33.921875 19.230469 34.949219 19.125 36.25 C 18.800781 37.035156 18.042969 37.667969 16.8125 38.28125 C 15.542969 38.914063 13.890625 39.5 12.21875 40.21875 C 10.546875 40.9375 8.828125 41.8125 7.46875 43.1875 C 6.109375 44.5625 5.148438 46.449219 5 48.9375 L 4.9375 50 L 45.0625 50 L 45 48.9375 C 44.851563 46.449219 43.886719 44.5625 42.53125 43.1875 C 41.175781 41.8125 39.476563 40.9375 37.8125 40.21875 C 36.148438 39.5 34.515625 38.914063 33.25 38.28125 C 32.035156 37.671875 31.269531 37.054688 30.9375 36.28125 C 30.828125 34.964844 30.835938 33.929688 30.84375 32.6875 C 30.972656 32.546875 31.160156 32.449219 31.28125 32.28125 C 31.554688 31.902344 31.816406 31.4375 32.0625 30.9375 C 32.488281 30.0625 32.796875 29.011719 32.96875 27.96875 C 33.28125 27.804688 33.617188 27.765625 33.875 27.4375 C 34.355469 26.824219 34.695313 25.949219 34.84375 24.71875 C 34.976563 23.625 34.609375 22.902344 34.15625 22.34375 C 34.644531 20.757813 35.269531 18.195313 35.0625 15.5625 C 34.949219 14.125 34.582031 12.691406 33.71875 11.5 C 32.929688 10.40625 31.648438 9.609375 30.03125 9.28125 C 28.980469 7.917969 27.089844 7.40625 24.90625 7.40625 Z M 24.90625 9.40625 C 24.917969 9.40625 24.925781 9.40625 24.9375 9.40625 C 26.949219 9.414063 28.253906 10.003906 28.625 10.65625 L 28.875 11.0625 L 29.34375 11.125 C 30.734375 11.320313 31.53125 11.878906 32.09375 12.65625 C 32.65625 13.433594 32.96875 14.519531 33.0625 15.71875 C 33.25 18.117188 32.558594 20.910156 32.125 22.21875 L 31.875 23 L 32.5625 23.40625 C 32.519531 23.378906 32.945313 23.667969 32.84375 24.5 C 32.726563 25.480469 32.492188 25.988281 32.3125 26.21875 C 32.132813 26.449219 32.039063 26.4375 32.03125 26.4375 L 31.1875 26.5 L 31.09375 27.3125 C 31 28.175781 30.652344 29.234375 30.25 30.0625 C 30.046875 30.476563 29.839844 30.839844 29.65625 31.09375 C 29.472656 31.347656 29.28125 31.488281 29.375 31.4375 L 28.84375 31.71875 L 28.84375 32.3125 C 28.84375 33.757813 28.785156 34.949219 28.9375 36.625 L 28.9375 36.75 L 29 36.875 C 29.570313 38.410156 30.890625 39.367188 32.34375 40.09375 C 33.796875 40.820313 35.464844 41.355469 37.03125 42.03125 C 38.597656 42.707031 40.03125 43.515625 41.09375 44.59375 C 41.9375 45.449219 42.46875 46.582031 42.75 48 L 7.25 48 C 7.53125 46.585938 8.058594 45.449219 8.90625 44.59375 C 9.972656 43.515625 11.425781 42.707031 13 42.03125 C 14.574219 41.355469 16.230469 40.820313 17.6875 40.09375 C 19.144531 39.367188 20.492188 38.410156 21.0625 36.875 L 21.125 36.625 C 21.277344 34.949219 21.21875 33.761719 21.21875 32.3125 L 21.21875 31.71875 L 20.6875 31.4375 C 20.777344 31.484375 20.5625 31.347656 20.375 31.09375 C 20.1875 30.839844 19.957031 30.476563 19.75 30.0625 C 19.335938 29.234375 18.996094 28.167969 18.90625 27.3125 L 18.8125 26.5 L 17.96875 26.4375 C 17.960938 26.4375 17.867188 26.449219 17.6875 26.21875 C 17.507813 25.988281 17.273438 25.480469 17.15625 24.5 C 17.058594 23.667969 17.480469 23.378906 17.4375 23.40625 L 18.09375 23 L 17.90625 22.28125 C 16.964844 18.65625 16.800781 15.363281 17.78125 13.125 C 18.757813 10.894531 20.75 9.492188 24.90625 9.40625 Z"/>
</svg>
